# xmcd
#
# Track frame offsets: 
#        150
#        18455
#        31507
#        44878
#        56103
#        69378
#        82283
#        92412
#        103028
#        123239
#        140930
#        158110
#        171359
#        186516
#        199264
#        210957
#        229652
#        251250
#        267369
#
# Disc length: 3777 seconds
#
# Revision: 0
# Processed by: cddbd v1.5.2PL0 Copyright (c) Steve Scherf et al.
# Submitted via: ExactAudioCopy v1.0b4
#
DISCID=130ebf13
DTITLE=Peter Green - The Anthology [ difk 1 ]
DYEAR=2008
DGENRE=Blues Rock
TTITLE0=Evil Woman Blues
TTITLE1=The Stumble
TTITLE2=Sitting In The Rain
TTITLE3=The World Keep On Turning
TTITLE4=The Supernatural
TTITLE5=Looking For Somebody
TTITLE6=Long Grey Mare (feat. Bob Brunning)
TTITLE7=Stop Messin' Around
TTITLE8=Train Is Coming
TTITLE9=Greeny
TTITLE10=Soul Dressing
TTITLE11=I Loved Another Woman
TTITLE12=No Place To Go
TTITLE13=You Don't Love Me
TTITLE14=Lazy Poker Blues
TTITLE15=Merry Go Round
TTITLE16=Trying So Hard To Forget
TTITLE17=Ramblin' Pony
TTITLE18=Drifting
EXTD=
EXTT0=
EXTT1=
EXTT2=
EXTT3=
EXTT4=
EXTT5=
EXTT6=
EXTT7=
EXTT8=
EXTT9=
EXTT10=
EXTT11=
EXTT12=
EXTT13=
EXTT14=
EXTT15=
EXTT16=
EXTT17=
EXTT18=
PLAYORDER=
